<svg width="169" height="78" viewBox="0 0 169 78" fill="none" xmlns="http://www.w3.org/2000/svg">
<path d="M83.91 61.7718C94.6685 61.7718 103.39 51.4341 103.39 38.6818C103.39 25.9295 94.6685 15.5918 83.91 15.5918C73.1515 15.5918 64.4301 25.9295 64.4301 38.6818C64.4301 51.4341 73.1515 61.7718 83.91 61.7718Z" fill="#1A94D2"/>
<path d="M115.63 4.95215C148.46 22.8721 153.67 38.3821 153.51 38.8722C153.46 39.0322 151.36 41.3621 147.72 44.6821C140.19 51.6521 125.98 62.9822 109.07 67.5222C107.25 68.0422 105.4 68.4822 103.53 68.8422C82.99 73.1321 67.41 69.0522 60.64 52.5722C59.98 51.0121 59.42 49.3821 58.98 47.6922C58.25 44.8422 57.85 41.8222 57.85 38.6922C57.85 25.3321 65.02 13.9621 75.06 9.68215C72.48 9.93215 69.77 10.3521 66.93 10.9421H66.91H66.89C65.12 11.2821 63.33 11.7021 61.53 12.2221C58.07 13.1521 54.73 14.3921 51.53 15.8121C46.72 28.8221 38.38 65.2321 78.02 75.7921C83.8 77.3321 89.8 77.6621 95.81 77.0921C99.33 76.7621 102.86 76.1321 106.37 75.2521C138.45 67.2221 168.32 38.8821 168.32 38.8821C150.89 17.2421 115.64 4.96215 115.64 4.96215L115.63 4.95215Z" fill="#5AB847"/>
<path d="M52.68 72.4016C19.85 54.4816 14.64 38.9716 14.8 38.4816C14.85 38.3216 16.95 35.9916 20.59 32.6716C28.12 25.7016 42.33 14.3716 59.24 9.83163C61.06 9.31163 62.91 8.87163 64.78 8.51163C85.32 4.22163 100.9 8.30163 107.67 24.7816C108.34 26.3416 108.89 27.9716 109.33 29.6616C110.06 32.5116 110.46 35.5316 110.46 38.6616C110.46 52.0216 103.29 63.3916 93.25 67.6716C95.83 67.4216 98.54 67.0016 101.38 66.4116H101.4H101.42C103.19 66.0716 104.98 65.6516 106.78 65.1316C110.24 64.2016 113.58 62.9616 116.78 61.5416C121.59 48.5316 129.93 12.1216 90.29 1.56163C84.51 0.0216333 78.52 -0.308367 72.5 0.261633C68.98 0.591633 65.45 1.22163 61.94 2.10163C29.86 10.1316 0 38.4716 0 38.4716C17.43 60.1116 52.67 72.3916 52.67 72.3916L52.68 72.4016Z" fill="#5AB847"/>
</svg>
