<?xml version="1.0" encoding="UTF-8"?>
<svg id="Layer_1" xmlns="http://www.w3.org/2000/svg" version="1.1" viewBox="0 0 1024 328">
  <!-- Generator: Adobe Illustrator 30.2.1, SVG Export Plug-In . SVG Version: 2.1.1 Build 1)  -->
  <defs>
    <style>
      .st0 {
        fill: #3aac4b;
      }

      .st1 {
        fill: #fcfeff;
      }

      .st2 {
        fill: #208ec1;
      }

      .st3 {
        fill: #18478e;
      }
    </style>
  </defs>
  <path class="st3" d="M327.8,327.1c0,.3-.3.6-.6.6H1c-.3,0-.6-.3-.6-.6V.9c0-.3.3-.6.6-.6h326.1c.3,0,.6.3.6.6v326.1ZM79.7,127.8c3.2-2.7,5.3-6.2,6.4-10.6,2-8.4.5-17.1-6.5-22.5-2.1-1.6-4.5-2.4-7.3-2.4-8,0-25,0-51.1,0-.2,0-.4.2-.4.4,0,0,0,0,0,0v71c0,.2.2.4.4.4h0c13.5,0,30.2,0,50.1,0,6.2,0,10.2-.8,13.9-5.3,3.9-4.7,3.9-9,3.8-15.2,0-6.6-3.3-12.5-9.1-15.5-.1,0-.2-.2,0-.3,0,0,0,0,0,0ZM163.2,163.4v-13c0-.3-.3-.6-.6-.6-17.6,0-29.6,0-36.1,0-5.1,0-8.4.6-10.6-3.4-1.5-2.6-.9-7.2-.9-11.1,0-.2.2-.5.4-.5,0,0,0,0,0,0h45.3c.2,0,.3-.1.3-.3v-12.7c0-.2-.2-.4-.4-.4h-45c-.3,0-.6-.3-.6-.6,0,0,0,0,0,0,.3-6.4-1.9-15.2,8-15.1,8.2,0,21.4,0,39.8,0,.3,0,.6-.3.6-.6h0v-12.5c0-.2-.2-.4-.4-.4h0c-25.5,0-40.8,0-45.9,0-4.5,0-7.6.3-9.2,1.1-5.7,2.7-9.1,9.4-9.1,15.3,0,21.1,0,33.2,0,36.1-.1,4.9.3,8.4,1.4,10.6,2.7,5.8,7.5,8.7,14.2,8.7,7.5,0,23.6,0,48.3,0,.4,0,.7-.3.7-.7ZM239.2,163.4v-12.9c0-.3-.2-.6-.6-.6-23.9,0-37.2,0-39.9,0-6,0-7.7-3-7.7-8.9,0-9.3,0-18.8,0-28.7,0-.3,0-.6.1-.9,1-3.6,3.4-5.4,7.3-5.4,12.2,0,25.6,0,40,0,.4,0,.7-.3.7-.7v-12.4c0-.2-.2-.4-.4-.4,0,0,0,0,0,0-16.8,0-32.7,0-47.6,0-3.4,0-5.8.3-7.3,1-6.4,2.8-9.3,10.3-9.2,17,0,13.2,0,24.6,0,34.2,0,8.9,1.8,15.3,9.5,18.8,1.3.6,6.6.8,15.9.8,25.2,0,38,0,38.4,0,.3,0,.6-.3.6-.6ZM298.4,92.3c-.7,0-6.9,0-18.5,0-2.5,0-3.4.6-5.1,2.2-11.1,10.5-22.9,21.6-35.4,33.4-.1.1-.1.4,0,.5,0,0,0,0,0,0l45.4,35c.5.4,1,.6,1.6.6h20.2c.1,0,.2-.1.2-.3s0-.2-.1-.2l-45.5-35.1c-.2-.2-.2-.4,0-.6,0,0,0,0,0,0l37.3-35c.1-.1.1-.3,0-.4,0,0-.2-.1-.3-.1Z"/>
  <path class="st0" d="M795.7,101.6c-.1-.8,0-1.6,0-2.2.8-2.1,1-3.7.7-4.7-.8-2.4-.3-4,1.6-4.9,1.1-.5,1.7-.8,1.7-.8,19-10.4,38-17.9,59.4-17.5,16.8.3,31.2,5.8,43.2,16.4,19.9,17.5,18.9,48.4,10.9,71.4-.3.9-1,1.7-1.8,2.1-8.7,4.7-19.6,7.2-29.5,8.3-.2,0-.3-.1-.4-.3,0-.1,0-.3.2-.3,10.8-6.5,17.5-16,20.3-28.4,6.2-27.5-7.2-57.3-38.2-58.9-24-1.2-46,6.6-66.1,19.8-.3.2-.6.2-.9.2l-1.3-.2Z"/>
  <path class="st0" d="M939.3,91.4c-1.4,1.3-1.9,2.9-1.5,4.7l-22.9-15.4c-.1,0-.1-.2,0-.3s.2-.1.3,0l24.2,11Z"/>
  <path class="st0" d="M936.7,153.3l.2,10.7c0,.2,0,.4-.2.5-12.2,7.3-24.9,12.8-37.9,16.5-19.3,5.4-39.1,4.8-57-4.8-18.5-9.9-27.8-25.7-28-47.4-.1-11,1.7-22,5.4-33,.2-.6.7-1.1,1.2-1.4,9.6-4.4,19.7-7.2,30.2-8.3.2,0,.3.1.3.3,0,.1,0,.2-.1.3-11.3,6.8-18.2,16.8-20.9,29.9-3.7,18,1.3,38.4,15.8,49.6,6.6,5.1,14.9,7.7,25.1,7.9,11.6.2,22.3-1.2,32.3-4.3,11.7-3.6,22.9-9.1,33.6-16.5,0,0,0,0,0,0,0,0,0,0,0,0Z"/>
  <path class="st2" d="M746.6,127.3c2.7,1.5,5,3.1,7.1,4.9,2,1.8,3.8,3.7,5.4,5.8,4.6,10.6-2,18.6-11.3,22.8-17.3,7.8-37.5,5-55.5,0-.2,0-.3-.2-.2-.4,0,0,0,0,0,0l3.4-6.5c0-.2.3-.3.5-.2,15.6,4.2,31.8,7.2,45.1-.2,1.9-1.1,3.3-2.9,4.3-5.5,1.6-4.4-.8-9.2-4.6-11.5-1.7-1-4-1.9-6.9-2.8-8.7-2.5-15.7-4.6-21.1-6.4-4.8-1.5-9.2-3.8-12.9-6.8-6.4-5.1-7.4-14.3-1.5-20.2,3.8-3.9,8.6-6.5,14.6-8,14.2-3.5,28.3-3.2,42.5,1,.3,0,.5.4.4.8,0,0,0,0,0,.1l-3.2,6.2c-.2.4-.7.6-1.2.5-10.3-3.3-20.7-4-31.2-2.1-2.2.4-4.4,1.5-6.8,3.2-5.3,3.8-6.2,10.4,0,14,3.8,2.2,8.1,4.1,12.8,5.5,7.1,2.2,13.9,4.1,20.6,5.8Z"/>
  <path class="st0" d="M383.8,122.3h42.6c.3,0,.6.3.6.6h0v6.5c0,.3-.3.6-.6.6h-42.6c-.3,0-.6.3-.6.6h0v25.3c0,.3.3.6.6.6h47.7c.3,0,.6.3.6.6h0v6.6c0,.3-.3.6-.6.6h-62.4c-.3,0-.6-.3-.6-.6h0v-71.7c0-.3.3-.6.6-.6h59.9c.3,0,.6.3.6.6h0v6.4c0,.3-.3.6-.6.6h-45.3c-.3,0-.6.3-.6.6v22.1c0,.3.3.6.6.6Z"/>
  <path class="st2" d="M795.8,99.4c-.2.6-.2,1.3,0,2.2v58.8c0,0-.6,4.2-.6,4.2h-13.3c-.5,0-.9-.4-.9-.9l-.3-7.8c1.2-2,1.3-4.7.2-8.1v-33c0-2.2.3-6,.8-11.5.1-1.6-.5-2.3-2-2.2,1.4-2,1.9-4.9,1.4-8.7,0-.4.2-.8.7-.9,0,0,0,0,0,0l13.1-.3c.4,0,.8.3.8.8l.2,7.4Z"/>
  <path class="st2" d="M979.1,134.7c-1.7-2.5-3.7-4.8-5.8-7-3.7-3.8-5.8-6-6.3-6.6-3.7-4.2-7.4-8.5-11.3-12.8-1.1-1.2-1.6-2.5-2.6-3.1-.2-.1-.6,0-.7.2,0,0,0,0,0,0-.6,1.4-.7,2.7-.4,3.9v32c0,0,.2,14.2.2,14.2l-.2,8.1c0,.5-.4.9-.9.9h-12.3c-.4,0-.7-.3-.7-.7h0s0-67.6,0-67.6c-.4-1.8,0-3.4,1.5-4.7h12.8c1.3.2,2.5.7,3.4,1.6l54.5,58.1c0,.1.3.1.4,0,0,0,0-.1,0-.2l-1.2-58.5c0-.4.3-.7.7-.7,0,0,0,0,0,0h12.9c.4,0,.6.3.6.6h0v71.3c0,.4-.3.7-.7.7h-13.4c-.7,0-1.3-.3-1.8-.8l-27.6-28.6c-.1-.1-.2-.2-.4-.2-.3-.1-.5-.1-.5,0Z"/>
  <path class="st2" d="M524,151.1c0,0,.2,0,.3,0,0,0,0,0,0-.2l-1.2-58.7c0-.4.3-.7.7-.7,0,0,0,0,0,0h12.4c.4,0,.7.3.7.7v71.2c0,.4-.3.8-.8.8h-13.2c-.6,0-1.2-.3-1.6-.7-4.9-5.3-15.8-16.5-32.7-33.7-7.9-8-15.6-16.5-22-24.9-.2-.3-.5-.6-.9-.9-.2-.1-.4,0-.5,0,0,0,0,.1,0,.2v59.3c0,.4-.3.6-.6.6h-11.9c-.3,0-.6-.3-.6-.6h0v-71.5c0-.4.3-.7.6-.7h14.2c.8,0,1.6.3,2.2,1l55,58.6Z"/>
  <path class="st2" d="M629.2,91.5h14.4c.3,0,.6.3.6.6,0,0,0,.2,0,.3l-39.8,71.6c-.1.2-.3.3-.5.3h-15.6c-.2,0-.4-.1-.5-.3l-36.5-71.6c-.1-.3,0-.7.3-.8,0,0,.2,0,.3,0h14.8c.2,0,.4.1.5.3l29,60.7c.1.3.5.4.8.3.1,0,.2-.1.3-.3l31.5-60.7c.1-.2.3-.3.5-.3Z"/>
  <rect class="st2" x="657.3" y="91.5" width="14.6" height="72.8" rx=".7" ry=".7"/>
  <path class="st1" d="M79.7,127.8c0,0-.1.2,0,.3,0,0,0,0,0,0,5.8,2.9,9,8.9,9.1,15.5,0,6.1.1,10.5-3.8,15.2-3.7,4.5-7.8,5.3-13.9,5.3-19.9,0-36.6,0-50.1,0-.2,0-.4-.2-.4-.4h0v-71c0-.2.2-.5.4-.5,0,0,0,0,0,0,26,0,43.1,0,51.1,0,2.8,0,5.2.8,7.3,2.4,7,5.4,8.6,14.1,6.5,22.5-1.1,4.3-3.2,7.8-6.4,10.6ZM36.5,107.5v12.4c0,.4.3.7.7.7h27.1c3.5,0,6.3-3,6.3-6.6h0v-.6c0-3.6-2.8-6.5-6.3-6.5h-27.1c-.4,0-.7.3-.7.7ZM36.5,135.4v13.6c0,.2.2.4.4.4h29c4,0,7.2-3.2,7.2-7.2,0-4-3.2-7.2-7.2-7.2h-29c-.2,0-.4.2-.4.4Z"/>
  <path class="st1" d="M162.5,164.1c-24.7,0-40.8,0-48.3,0-6.7,0-11.4-2.9-14.2-8.7-1-2.2-1.5-5.7-1.4-10.6,0-2.9,0-15,0-36.1,0-5.9,3.4-12.6,9.1-15.3,1.6-.8,4.7-1.2,9.2-1.1,5.1,0,20.4,0,45.9,0,.2,0,.4.2.4.4h0v12.5c0,.3-.3.6-.6.6h0c-18.3,0-31.6,0-39.8,0-9.8,0-7.7,8.7-8,15.1,0,.3.2.6.5.6,0,0,0,0,0,0h45c.2,0,.4.2.4.4h0v12.7c0,.2-.1.3-.3.3h-45.3c-.3,0-.5.2-.5.5,0,0,0,0,0,0,0,3.9-.5,8.5.9,11.1,2.3,4,5.6,3.4,10.6,3.4,6.5,0,18.5,0,36.1,0,.3,0,.6.3.6.6v13c0,.4-.3.7-.7.7Z"/>
  <path class="st1" d="M238.5,164c-.4,0-13.3,0-38.4,0-9.4,0-14.7-.3-15.9-.8-7.7-3.4-9.6-9.9-9.5-18.8.1-9.6.1-21,0-34.2,0-6.7,2.8-14.1,9.2-17,1.5-.6,3.9-1,7.3-1,14.9,0,30.8,0,47.6,0,.2,0,.4.2.4.4,0,0,0,0,0,0v12.4c0,.4-.3.7-.7.7-14.4,0-27.8,0-40,0-3.9,0-6.3,1.8-7.3,5.4,0,.3-.1.6-.1.9,0,9.9,0,19.5,0,28.7,0,5.9,1.7,8.9,7.7,8.9,2.7,0,16,0,39.9,0,.3,0,.6.3.6.6v12.9c0,.3-.3.6-.7.6Z"/>
  <path class="st1" d="M298.4,92.3c.2,0,.3.1.3.3,0,0,0,.2-.1.3l-37.3,35c-.2.2-.2.5,0,.6,0,0,0,0,0,0l45.5,35.1c.1,0,.1.2,0,.4,0,0-.1,0-.2,0h-20.2c-.6,0-1.1-.2-1.6-.6l-45.4-35c-.2-.1-.2-.3,0-.5,0,0,0,0,0,0,12.5-11.8,24.3-22.9,35.4-33.4,1.7-1.6,2.7-2.2,5.1-2.2,11.6,0,17.8,0,18.5,0Z"/>
  <ellipse class="st2" cx="866.1" cy="127.8" rx="33.6" ry="27.5" transform="translate(735.3 993.5) rotate(-89.8)"/>
  <path class="st0" d="M779.5,101.1c1.5-.1,2.2.6,2,2.2-.5,5.5-.7,9.3-.6,11.5-4.4,3.9-8.4,8-12,12.6-.5.6-.6,1.4-.3,2.1,2.8,7,6.7,12.1,12.2,18.4,1.1,3.4,1,6.1-.2,8.1l-21.4-17.8c-1.6-2.1-3.4-4-5.4-5.8-2.1-1.8-4.4-3.5-7.1-4.9l32.8-26.3Z"/>
  <path class="st0" d="M979.1,134.7l-27,20.8-.3-14.2,12.7-13c.2-.2.3-.6.2-.9-2.9-6.7-7.2-12.8-12.8-18.1-.3-1.2-.2-2.5.4-3.9.1-.3.4-.4.7-.3,0,0,0,0,0,0,1,.6,1.5,1.9,2.6,3.1,3.9,4.3,7.6,8.6,11.3,12.8.5.6,2.6,2.8,6.3,6.6,2.2,2.2,4.1,4.5,5.8,7Z"/>
  <path class="st3" d="M36.5,107.5c0-.4.3-.7.7-.7h27.1c3.5,0,6.3,2.9,6.3,6.5v.6c0,3.6-2.8,6.5-6.3,6.5h-27.1c-.4,0-.7-.2-.7-.6v-12.4Z"/>
  <path class="st1" d="M951.8,141.2v-32c5.7,5.4,10,11.4,12.9,18.1.1.3,0,.7-.2.9l-12.7,13Z"/>
  <path class="st1" d="M780.9,114.7v33c-5.6-6.2-9.5-11.3-12.3-18.4-.3-.7-.2-1.5.3-2.1,3.6-4.5,7.6-8.7,12-12.6Z"/>
  <path class="st3" d="M36.5,135.4c0-.2.2-.4.4-.4h29c4,0,7.2,3.2,7.2,7.2h0c0,4-3.2,7.2-7.2,7.2h-29c-.2,0-.4-.2-.4-.4v-13.6Z"/>
  <path class="st0" d="M795,164.6l.7-4.2,21,14c.1,0,.1.2,0,.4,0,0-.2.1-.3,0-1.8-.6-3.7-1.3-5.5-2.3-5.3-2.7-10.6-5.3-15.9-8Z"/>
</svg>