<svg width="301" height="53" viewBox="0 0 301 53" fill="none" xmlns="http://www.w3.org/2000/svg">
<g clip-path="url(#clip0_1378_1054)">
<path d="M71.0386 36.6707C71.3253 37.0288 71.6121 37.3153 71.8271 37.5302C71.6837 28.3622 71.4687 19.1941 71.3253 9.88281H77.5618V43.1886H70.7519C62.2215 33.8773 52.5442 25.2823 44.5156 15.0398V43.1886H38.6376V9.95444C41.0031 9.95444 43.3687 9.95444 45.7342 9.95444C45.9493 9.95444 46.1643 10.1693 46.3077 10.3126" fill="#FAFAFA"/>
<path d="M241.287 26.5721C241.287 30.9412 240.069 34.9522 236.986 38.1754C231.61 43.6905 224.012 43.1175 219.352 36.9577C215.123 31.2277 215.051 22.2029 219.281 16.4729C221.503 13.4646 224.298 11.4591 228.098 11.3159C232.829 11.101 236.27 13.5363 238.707 17.3324C240.499 20.1258 241.359 23.2773 241.287 26.6437" fill="#FAFAFA"/>
<path d="M261.215 38.3184V43.3322C260.212 43.9052 259.208 44.4782 258.205 44.9796C251.61 48.4892 244.728 51.211 237.273 52.2138C229.245 53.2165 221.861 51.6408 215.051 47.2716C208.671 43.1173 205.446 37.0292 204.8 29.5801C204.227 23.5636 205.23 17.762 207.094 12.1036C207.166 11.8887 207.309 11.6738 207.453 11.3873C212.04 9.38179 216.843 7.87766 221.933 7.51953C210.248 13.6793 208.17 31.0127 216.126 41.2551C219.782 45.9824 224.872 47.8446 230.678 47.9879C241.431 48.2027 250.893 45.0512 259.997 39.1063" fill="#FAFAFA"/>
<path d="M196.7 14.8966V9.59627C199.209 8.30702 201.861 6.87451 204.657 5.65688C211.395 2.64861 218.349 0.49985 225.875 0.786352C234.047 1.14448 241.359 3.79462 247.022 9.9544C250.463 13.6789 252.112 18.1913 252.685 23.2051C253.402 29.2933 252.327 35.2382 250.463 41.0398C250.32 41.4696 250.033 41.9709 249.674 42.1142C245.445 44.0481 241.001 45.2657 236.413 45.8387C236.27 45.8387 236.198 45.8387 235.839 45.7671C238.635 44.1913 240.786 42.1858 242.434 39.6789C248.456 30.6541 247.094 16.9737 239.424 10.026C236.126 7.01776 232.112 5.7285 227.811 5.51363C218.707 5.08388 210.248 7.37589 202.291 11.745C200.499 12.7478 198.779 13.8222 196.844 15.0398" fill="#FAFAFA"/>
<path d="M0.286736 9.88281H28.2434V13.3208H7.025V24.1363H27.0248V27.5743H7.025V39.7506H29.462V43.2602H0.286736V9.88281Z" fill="#FAFAFA"/>
<path d="M84.0133 9.9541H91.3251C95.9129 19.5519 100.501 29.2213 105.017 38.5326C109.891 29.2213 114.837 19.6235 119.855 10.0257H127.024C120.787 21.1993 114.694 32.2296 108.529 43.3315H101.074C95.4827 32.3012 89.8197 21.2709 84.085 10.0257" fill="#FAFAFA"/>
<path d="M139.497 9.9541H132.973V43.2599H139.497V9.9541Z" fill="#FAFAFA"/>
<path d="M196.198 9.88281C193.904 10.9572 194.478 10.4558 192.112 11.9599C190.32 13.2492 190.75 12.8911 189.675 13.7506C184.227 18.1197 173.761 26.4283 173.761 26.4283L190.894 40.6101L202.722 46.7698C203.868 47.3428 205.087 47.7726 206.306 48.274C202.937 45.9103 199.639 43.69 196.127 41.3979C196.127 30.869 196.127 20.3401 196.127 9.88281M189.747 35.9544C187.166 33.161 185.016 30.5109 183.654 26.858C185.159 24.4227 187.883 21.9159 189.818 20.1252L189.675 35.9544H189.747Z" fill="#FAFAFA"/>
<path d="M172.543 26.0702C170.679 25.5688 167.095 24.4944 164.944 23.8498C162.794 23.1335 160.643 22.4889 158.708 21.3429C155.912 19.7671 155.84 16.6872 158.493 14.7534C160.285 13.3925 162.507 12.9627 164.658 12.8911C168.6 12.6762 172.543 12.8911 176.342 14.3236C176.987 13.1776 177.489 12.1032 178.134 10.9572C177.847 10.8856 177.776 10.814 177.632 10.7423C172.399 9.23822 167.023 8.88009 161.647 9.66797C158.063 10.241 154.622 11.2437 151.898 13.8939C149.389 16.3291 149.317 20.1969 151.826 22.6322C154.192 24.9958 157.274 25.9985 160.357 27.0013C163.439 27.9324 166.593 28.7203 169.604 29.7947C171.539 30.4393 173.26 31.6569 173.546 33.949C173.833 36.3126 172.614 38.0316 170.034 39.106C166.02 40.7534 161.79 40.6817 157.633 40.0371C155.267 39.679 152.973 39.0344 150.536 38.4613C150.034 39.4641 149.532 40.5385 148.959 41.6845C149.174 41.7561 149.246 41.8994 149.389 41.8994C152.4 42.4724 155.339 43.3319 158.349 43.6184C163.869 44.1914 169.317 43.9765 174.478 41.6129C177.919 40.0371 180.5 37.7451 180.213 33.5192C180.213 33.4476 179.855 28.7203 172.543 26.0702Z" fill="#FAFAFA"/>
<path d="M196.27 9.88281H189.675V43.4035H196.27V9.88281Z" fill="#FAFAFA"/>
<path d="M273.402 15.1113C272.47 14.6099 261.932 9.66773 260.929 9.23798C257.631 7.73385 254.334 6.22972 251.036 4.72559C251.18 4.86884 251.251 5.01209 251.395 5.08371C254.549 7.16085 258.778 10.0259 261.932 12.1746C262.434 12.5327 263.653 15.3261 264.083 16.0424C267.739 22.4887 268.527 26.1416 265.803 32.946C264.8 35.3812 261.789 40.6099 261.789 43.1884H268.025V39.3206C272.398 35.9542 276.556 32.7311 280.785 29.5079L273.473 15.1113H273.402ZM267.954 32.8027V17.7614C270.534 20.3399 272.685 23.1333 274.047 26.5713C272.04 28.5768 270.176 30.5107 267.954 32.8027Z" fill="#FAFAFA"/>
<path d="M294.19 36.742C294.477 37.1001 294.763 37.3866 294.978 37.6015C294.835 28.4334 294.62 19.2654 294.477 9.9541C296.699 9.9541 298.849 9.9541 300.928 9.9541C300.928 21.056 300.928 32.0863 300.928 43.2599C298.706 43.2599 296.269 43.2599 293.831 43.2599C285.301 33.9486 275.911 25.3536 267.882 15.0395C267.882 24.4224 267.882 33.7337 267.882 43.1883C266.018 43.1883 263.724 43.1883 261.646 43.1883V9.9541C264.011 9.9541 266.377 9.9541 268.742 9.9541C268.957 9.9541 269.172 10.169 269.316 10.3122" fill="#FAFAFA"/>
</g>
<defs>
<clipPath id="clip0_1378_1054">
<rect width="301" height="52" fill="white" transform="translate(0 0.5)"/>
</clipPath>
</defs>
</svg>
