<svg  viewBox="0 0 134 24" fill="none" xmlns="http://www.w3.org/2000/svg">
<g clip-path="url(#clip0_1017_369)">
<path d="M31.4912 16.0475C31.6183 16.2064 31.7454 16.3335 31.8408 16.4288C31.7772 12.3613 31.6819 8.29385 31.6183 4.16281H34.3829V18.9392H31.3641C27.5826 14.8082 23.2927 10.9949 19.7337 6.45077V18.9392H17.1279V4.19459C18.1766 4.19459 19.2252 4.19459 20.2739 4.19459C20.3692 4.19459 20.4645 4.28992 20.5281 4.35347" fill="#1D93D1"/>
<path d="M106.962 11.5669C106.962 13.5053 106.422 15.2848 105.055 16.7148C102.672 19.1617 99.3038 18.9074 97.2383 16.1746C95.3634 13.6324 95.3317 9.6285 97.2065 7.08632C98.1916 5.75168 99.4309 4.86192 101.115 4.79836C103.212 4.70303 104.738 5.78345 105.818 7.46765C106.613 8.70696 106.994 10.1052 106.962 11.5987" fill="#1A94D2"/>
<path d="M115.796 16.7784V19.0028C115.351 19.257 114.906 19.5112 114.461 19.7337C111.538 21.2907 108.487 22.4983 105.183 22.9432C101.623 23.388 98.3504 22.6889 95.3316 20.7505C92.5034 18.9074 91.0734 16.2064 90.7874 12.9016C90.5332 10.2323 90.9781 7.65831 91.8043 5.14791C91.8361 5.05258 91.8996 4.95725 91.9632 4.83014C93.9969 3.94037 96.126 3.27305 98.3822 3.11417C93.2025 5.84701 92.281 13.5371 95.8082 18.0812C97.4289 20.1785 99.685 21.0047 102.259 21.0683C107.026 21.1636 111.22 19.7654 115.256 17.1279" fill="#5AB847"/>
<path d="M87.1967 6.38722V4.03571C88.3089 3.46372 89.4846 2.82817 90.7239 2.28796C93.711 0.953315 96.7934 -1.35343e-06 100.13 0.127108C103.753 0.285994 106.994 1.46175 109.504 4.19459C111.03 5.84701 111.76 7.84897 112.015 10.0734C112.332 12.7744 111.856 15.412 111.03 17.9859C110.966 18.1766 110.839 18.399 110.68 18.4626C108.805 19.3206 106.835 19.8608 104.801 20.115C104.738 20.115 104.706 20.115 104.547 20.0832C105.786 19.3841 106.74 18.4943 107.471 17.3821C110.14 13.3782 109.536 7.30876 106.136 4.22637C104.674 2.89173 102.895 2.31974 100.988 2.2244C96.9523 2.03374 93.2026 3.05061 89.6753 4.98902C88.8809 5.4339 88.1182 5.91056 87.2602 6.45078" fill="#5AB847"/>
<path d="M0.127075 4.16281H12.5202V5.68812H3.11413V10.4865H11.98V12.0118H3.11413V17.4139H13.0604V18.971H0.127075V4.16281Z" fill="#5AB847"/>
<path d="M37.2429 4.1946H40.4842C42.5179 8.45274 44.5517 12.7427 46.5536 16.8737C48.7145 12.7427 50.9071 8.48452 53.1315 4.22637H56.3093C53.5446 9.18362 50.8436 14.0773 48.1107 19.0028H44.8059C42.3273 14.1091 39.8169 9.2154 37.2747 4.22637" fill="#1A94D2"/>
<path d="M61.8385 4.1946H58.9468V18.971H61.8385V4.1946Z" fill="#1A94D2"/>
<path d="M86.9742 4.16281C85.9574 4.63947 86.2116 4.41703 85.1629 5.08435C84.3685 5.65634 84.5592 5.49745 84.0825 5.87878C81.6674 7.81719 77.028 11.5033 77.028 11.5033L84.6227 17.7952L89.866 20.5281C90.3744 20.7823 90.9146 20.9729 91.4548 21.1954C89.9613 20.1467 88.4995 19.1616 86.9425 18.1448C86.9425 13.4735 86.9425 8.80228 86.9425 4.16281M84.1143 15.7297C82.9703 14.4904 82.017 13.3146 81.4132 11.694C82.0805 10.6136 83.2881 9.50138 84.1461 8.70695L84.0825 15.7297H84.1143Z" fill="#5AB847"/>
<path d="M76.4878 11.3445C75.6616 11.122 74.0727 10.6454 73.1194 10.3594C72.1661 10.0416 71.2128 9.7556 70.3548 9.24716C69.1155 8.54807 69.0837 7.18165 70.2594 6.32366C71.0539 5.7199 72.039 5.52923 72.9923 5.49745C74.74 5.40212 76.4878 5.49745 78.172 6.133C78.458 5.62456 78.6804 5.14791 78.9664 4.63947C78.8393 4.60769 78.8075 4.57592 78.744 4.54414C76.4242 3.87682 74.0409 3.71793 71.6576 4.06748C70.0688 4.3217 68.5435 4.76658 67.3359 5.94234C66.2237 7.02276 66.192 8.73873 67.3042 9.81915C68.3528 10.8678 69.7192 11.3127 71.0857 11.7576C72.4521 12.1707 73.8503 12.5202 75.1849 12.9969C76.0429 13.2829 76.8055 13.8231 76.9327 14.84C77.0598 15.8886 76.5196 16.6513 75.3756 17.1279C73.5961 17.8588 71.7212 17.827 69.8781 17.541C68.8295 17.3821 67.8126 17.0961 66.7322 16.8419C66.5097 17.2868 66.2873 17.7635 66.0331 18.2719C66.1284 18.3037 66.1602 18.3672 66.2237 18.3672C67.5584 18.6214 68.8612 19.0028 70.1959 19.1299C72.6427 19.3841 75.0578 19.2888 77.3458 18.2401C78.8711 17.541 80.015 16.5241 79.8879 14.6493C79.8879 14.6175 79.729 12.5202 76.4878 11.3445Z" fill="#1D93D1"/>
<path d="M87.006 4.16281H84.0825V19.0346H87.006V4.16281Z" fill="#1A94D2"/>
<path d="M121.198 6.48255C120.785 6.26011 116.114 4.06748 115.669 3.87682C114.207 3.2095 112.746 2.54218 111.284 1.87486C111.347 1.93841 111.379 2.00196 111.443 2.03374C112.841 2.95528 114.716 4.22637 116.114 5.17968C116.336 5.33857 116.877 6.57788 117.067 6.89565C118.688 9.7556 119.037 11.3762 117.83 14.3951C117.385 15.4755 116.05 17.7952 116.05 18.9392H118.815V17.2232C120.753 15.7297 122.596 14.2997 124.471 12.8698L121.23 6.48255H121.198ZM118.783 14.3315V7.6583C119.927 8.80228 120.881 10.0416 121.484 11.5669C120.595 12.4567 119.768 13.3146 118.783 14.3315Z" fill="#5AB847"/>
<path d="M130.414 16.0793C130.541 16.2382 130.668 16.3653 130.763 16.4606C130.7 12.3931 130.604 8.32563 130.541 4.1946C131.526 4.1946 132.479 4.1946 133.401 4.1946C133.401 9.12007 133.401 14.0138 133.401 18.971C132.416 18.971 131.335 18.971 130.255 18.971C126.473 14.84 122.31 11.0267 118.751 6.45078C118.751 10.6136 118.751 14.7446 118.751 18.9392C117.925 18.9392 116.908 18.9392 115.987 18.9392V4.1946C117.035 4.1946 118.084 4.1946 119.133 4.1946C119.228 4.1946 119.323 4.28993 119.387 4.35348" fill="#1D93D1"/>
</g>
<defs>
<clipPath id="clip0_1017_369">
<rect width="133.432" height="23.0703" fill="white"/>
</clipPath>
</defs>
</svg>
