<svg width="463" height="78" viewBox="0 0 463 78" fill="none" xmlns="http://www.w3.org/2000/svg">
<g clip-path="url(#clip0_1768_1500)">
<path d="M351.12 61.7601C361.879 61.7601 370.6 51.4223 370.6 38.6701C370.6 25.9178 361.879 15.5801 351.12 15.5801C340.361 15.5801 331.64 25.9178 331.64 38.6701C331.64 51.4223 340.361 61.7601 351.12 61.7601Z" fill="#1A94D2"/>
<path d="M328.14 9.84027C330.01 9.34027 331.84 8.91027 333.64 8.53027C331.77 8.89027 329.92 9.33027 328.1 9.85027C328.11 9.85027 328.13 9.85027 328.14 9.84027Z" fill="#5AB847"/>
<path d="M378.19 29.7003C377.75 28.0003 377.19 26.3703 376.53 24.8203C377.16 26.3403 377.72 27.9603 378.19 29.7003Z" fill="#5AB847"/>
<path d="M382.84 4.94043C415.67 22.8604 420.88 38.3704 420.72 38.8604C420.67 39.0204 418.57 41.3504 414.93 44.6704C407.4 51.6404 393.19 62.9704 376.28 67.5104C374.46 68.0304 372.61 68.4704 370.74 68.8304C350.2 73.1204 334.62 69.0404 327.85 52.5604C327.19 51.0004 326.63 49.3704 326.19 47.6804C325.46 44.8304 325.06 41.8104 325.06 38.6804C325.06 25.3204 332.23 13.9504 342.27 9.67043C339.69 9.92043 336.98 10.3404 334.14 10.9304H334.12H334.1C332.33 11.2704 330.54 11.6904 328.74 12.2104C325.28 13.1404 321.94 14.3804 318.74 15.8004C313.93 28.8104 305.59 65.2204 345.23 75.7804C351.01 77.3204 357.01 77.6504 363.02 77.0804C366.54 76.7504 370.07 76.1204 373.58 75.2404C405.66 67.2104 435.53 38.8704 435.53 38.8704C418.1 17.2304 382.85 4.95043 382.85 4.95043L382.84 4.94043Z" fill="#5AB847"/>
<path d="M319.89 72.3899C287.06 54.4699 281.85 38.9599 282.01 38.4699C282.06 38.3099 284.16 35.9799 287.8 32.6599C295.33 25.6899 309.54 14.3599 326.45 9.81991C328.27 9.29991 330.12 8.85991 331.99 8.49991C352.53 4.20991 368.11 8.28992 374.88 24.7699C375.55 26.3299 376.1 27.9599 376.54 29.6499C377.27 32.4999 377.67 35.5199 377.67 38.6499C377.67 52.0099 370.5 63.3799 360.46 67.6599C363.04 67.4099 365.75 66.9899 368.59 66.3999H368.61H368.63C370.4 66.0599 372.19 65.6399 373.99 65.1199C377.45 64.1899 380.79 62.9499 383.99 61.5299C388.8 48.5199 397.14 12.1099 357.5 1.54991C351.72 0.00991452 345.73 -0.320085 339.71 0.249915C336.19 0.579915 332.66 1.20991 329.15 2.08991C297.07 10.1199 267.21 38.4599 267.21 38.4599C284.64 60.0999 319.88 72.3799 319.88 72.3799L319.89 72.3899Z" fill="#5AB847"/>
<path d="M41.62 40.2298H10.5V58.3398H45.33V63.7798H0V13.5498H43.53V18.9898H10.5V34.8698H41.63V40.2398L41.62 40.2298Z" fill="#5AB847"/>
<path d="M58.8 63.7898V13.5498H70.25L95.89 38.9698C101.73 44.8598 106.51 50.0798 110.2 55.2898L110.56 55.2198C109.61 48.5098 109.37 42.3998 109.37 34.6498V13.5498H119.15V63.7898H108.65L83.13 38.2998C77.52 32.7098 72.16 26.9698 68.22 21.5298L67.86 21.5998C68.46 27.9398 68.57 33.9698 68.57 42.3198V63.7898H58.79H58.8Z" fill="#1A94D2"/>
<path d="M154.93 63.7898L128.57 13.5498H139.9L152.42 38.2998C155.76 45.0798 158.74 51.2698 161.01 57.0798H161.25C163.52 51.2698 166.74 44.9298 170.43 38.3698L184.03 13.5498H195.12L166.38 63.7898H154.93Z" fill="#1A94D2"/>
<path d="M214.21 13.5498V63.7898H203.71V13.5498H214.21Z" fill="#1A94D2"/>
<path d="M231.03 55.8902C235.68 57.7502 242.36 59.1702 249.52 59.1702C260.14 59.1702 266.34 55.7402 266.34 50.6002C266.34 45.9802 262.05 43.2202 251.19 40.6902C238.07 37.7102 229.96 33.3902 229.96 26.3802C229.96 18.5502 240.34 12.7402 255.96 12.7402C264.07 12.7402 270.15 13.9302 273.61 15.2002L270.75 20.4902C268.24 19.5202 262.88 18.1102 255.6 18.1102C244.63 18.1102 240.45 22.2102 240.45 25.6402C240.45 30.3402 245.34 32.6502 256.43 35.3302C270.03 38.6802 276.83 42.7102 276.83 50.0902C276.83 57.8402 267.77 64.6202 248.8 64.6202C241.05 64.6202 232.58 63.1302 228.29 61.3402L231.03 55.9002V55.8902Z" fill="#1A94D2"/>
<path d="M301.52 13.5498V63.7898H291.02V13.5498H301.52Z" fill="#1A94D2"/>
<path d="M401.82 63.7898V13.5498H413.27L438.91 38.9698C444.76 44.8598 449.53 50.0798 453.22 55.2898L453.58 55.2198C452.63 48.5098 452.39 42.3998 452.39 34.6498V13.5498H462.17V63.7898H451.67L426.15 38.2998C420.54 32.7098 415.18 26.9698 411.24 21.5298L410.88 21.5998C411.48 27.9398 411.6 33.9698 411.6 42.3198V63.7898H401.82Z" fill="#1A94D2"/>
</g>
<defs>
<clipPath id="clip0_1768_1500">
<rect width="462.17" height="77.33" fill="white"/>
</clipPath>
</defs>
</svg>
